# xmcd
# 
# Track frame offsets:
#     183
#     21815
#     47983
#     78638
#     105728
#     141605
#     175125
#     195055
#     229965
# 
# Disc length: 3644
# 
# Revision: 4
# Processed by: cddbd v1.5.1PL2 Copyright (c) Steve Scherf et al.
# Submitted via: BonkEnc v1.0beta4
# 
DISCID=770e3a09
DTITLE=Jimmy Smith - Jimmy Smith Plays The Blues
DYEAR=1988
DGENRE=Blues
TTITLE0=Hobo Flats
TTITLE1=Soft Winds
TTITLE2=One For Members
TTITLE3=I'm Your Hoochie Coochie Man
TTITLE4=Some Of My Best Friends Are Blues
TTITLE5=T-Bone Steak
TTITLE6=Trouble In Mind
TTITLE7=The Sermon
TTITLE8=Grabbin' Hold
EXTD=
EXTT0=
EXTT1=
EXTT2=
EXTT3=
EXTT4=
EXTT5=
EXTT6=
EXTT7=
EXTT8=
PLAYORDER=
